<svg width="90" height="111" viewBox="0 0 90 111" fill="none" xmlns="http://www.w3.org/2000/svg">
<g clip-path="url(#clip0_17_2)">
<path d="M90.7364 8.96995C90.4785 8.69852 90.1603 8.50371 89.8253 8.38943C90.5893 5.20825 90.5426 2.38876 90.5349 2.21474C90.5083 1.14071 89.7456 0.234865 88.6939 0.0400592C87.6318 -0.161889 86.5976 0.416034 86.1874 1.40565C86.1816 1.42253 85.9269 2.04006 85.4649 2.93292C85.0729 2.53682 84.5409 2.29526 83.9577 2.26799C82.9805 2.23487 82.0771 2.83552 81.7402 3.76474C81.7292 3.8089 80.0405 8.14072 77.1297 8.14072C76.8484 8.14072 76.5477 8.10371 76.2464 8.02968C74.5551 7.53033 73.0848 7.46994 71.6547 7.82579C67.0856 8.95371 64.8533 12.8388 63.9227 15.0713C62.7064 15.8122 61.0119 16.4842 59.0932 17.2557C54.8429 18.9537 49.5539 21.0674 45.1715 25.5674C41.9133 28.9141 39.9343 32.6544 37.6002 39.8875L37.551 40.0414C30.4696 40.1687 29.5864 40.2901 29.057 40.4505C28.8535 40.5181 28.6196 40.572 28.2943 40.572H28.2865C28.0662 40.5687 27.8407 40.5986 27.6243 40.6557C27.4765 40.4544 27.2892 40.2765 27.0715 40.1349C26.2764 39.6044 25.0556 38.3505 23.7265 35.3661C22.3936 32.3765 22.1597 29.196 22.172 27.0713C23.3507 27.3427 24.4594 27.4771 25.4781 27.4771C30.7074 27.4771 32.8757 24.0544 34.3084 21.7894C34.4827 21.5141 34.6499 21.2492 34.8171 20.9979C35.4333 20.081 35.3005 18.8596 34.5119 18.1011C35.0218 15.9868 35.1184 14.2154 35.1262 14.1011C35.1819 12.9933 34.4283 12.007 33.3474 11.7719C32.262 11.5401 31.1734 12.1238 30.7723 13.155C30.7314 13.2622 30.6712 13.3959 30.6038 13.5544C30.5442 13.5433 30.4871 13.5375 30.4243 13.531C29.4056 13.4303 28.442 14.0544 28.0928 15.0277C27.6716 16.2115 26.5427 17.9667 25.8403 17.9667C25.8086 17.9667 25.782 17.9667 25.7489 17.9602C24.5806 17.6381 23.4984 17.6791 22.4441 18.0745C19.6804 19.1148 18.1466 21.7388 17.3832 23.5713C14.4899 25.8291 9.0616 31.4128 9.34024 41.3499C9.46919 46.0324 9.84114 47.5252 10.3576 48.833C10.0828 49.0785 9.74913 49.357 9.45364 49.6057C8.9132 50.0616 8.30732 50.5752 7.68848 51.1421C6.00756 52.6661 5.40751 55.2765 6.05098 58.3038C6.35943 59.77 7.03529 61.5116 8.06691 62.7538C7.10981 65.1798 6.21168 68.5123 6.21168 72.4889C6.21168 74.3577 6.2862 76.8785 6.58623 79.4454C5.07379 79.6272 3.89378 80.1701 3.00019 81.0974C1.87137 82.2577 1.32834 83.9428 1.38925 86.0896C1.58689 92.8013 5.76197 96.4292 13.7991 96.8818C15.0517 98.8279 16.5058 100.607 18.144 102.195C19.0311 103.056 20.0219 103.902 21.0924 104.708C22.0443 105.56 27.7856 110.215 40.41 110.951C40.9997 110.987 41.5919 111 42.1764 111C54.4684 111 62.074 103.54 62.9164 102.667C64.2908 101.412 65.5466 100.043 66.678 98.5805C67.4414 99.4591 68.265 100.386 69.0419 101.259C69.5279 101.808 69.9939 102.325 70.395 102.788C70.951 103.42 71.8154 103.688 72.6319 103.486C73.449 103.282 74.086 102.638 74.2869 101.816C75.1338 98.2578 75.7196 94.9285 76.0352 91.8448C77.2981 94.1376 78.3317 96.0532 78.6661 96.6785C79.1585 97.5902 80.22 98.0831 81.225 97.8279C81.9223 97.6506 82.4906 97.1578 82.7627 96.4902C82.95 96.0272 86.49 87.0967 83.4613 77.5727C83.6032 77.5493 83.7412 77.5116 83.8779 77.459C84.6918 77.1538 85.2562 76.4045 85.3346 75.5383C85.9042 68.985 84.2829 63.3571 80.5155 58.8135C80.4254 58.7064 80.3243 58.6058 80.2141 58.5142C78.8002 57.3441 76.6702 55.8135 74.4152 54.1934C70.5537 51.4187 65.7669 47.9817 63.705 45.672C62.9546 43.7453 62.317 32.9602 68.2248 18.4498C68.6369 18.2992 69.018 18.242 69.2169 18.3031C72.5658 19.3265 75.4325 19.8193 77.9837 19.8193C85.1513 19.8193 87.9973 15.8862 90.0793 13.0076C90.3515 12.6316 90.6152 12.2661 90.8835 11.9193C91.5665 11.0375 91.5095 9.77969 90.7364 8.96995Z" fill="white"/>
<path d="M42.9009 77.0997C45.2525 77.0997 47.1621 73.4991 47.1621 69.0549C47.1621 64.6127 45.2525 61.0088 42.9009 61.0088C40.5505 61.0088 38.6448 64.6127 38.6448 69.0549C38.6448 73.4991 40.5505 77.0997 42.9009 77.0997Z" fill="#1A171C"/>
<path d="M52.5118 102.211C58.0386 98.7123 60.1408 84.7344 60.2892 83.7142C61.4873 84.3344 62.633 84.9188 62.633 84.9188C62.633 84.9188 62.4314 82.8857 59.9943 81.8681C57.5591 80.8487 54.4079 81.8681 54.4079 81.8681C54.4079 81.8681 55.1648 81.9155 56.0895 82.074C55.0442 83.5526 51.3739 88.2708 45.0242 91.5727L42.9007 97.0493L40.0391 93.6312C39.0101 93.9493 37.9415 94.2234 36.8192 94.4396C34.6562 94.8552 32.7679 95.1675 31.1038 95.4058L30.7604 98.7078L28.2396 95.7617C24.3251 96.1669 21.586 95.835 21.1129 95.9117C24.0568 96.9961 26.1777 97.1649 26.2295 97.2182C28.3816 99.3916 40.0009 110.124 52.5118 102.211ZM36.8736 102.976C37.2216 101.302 38.0458 99.5136 39.8603 98.3123C40.4629 97.9091 41.2638 97.687 42.0712 97.5734L43.793 97.4487C44.6801 97.4448 45.3333 97.5201 45.3333 97.5201V101.781C45.3333 101.781 47.1619 94.1032 51.4206 91.9688C52.8838 91.2383 55.5225 91.3318 57.5501 91.5526C56.3733 95.4993 54.5686 99.7545 51.9928 101.386C49.1429 103.192 46.1089 104.103 43.0018 104.103C40.8251 104.103 38.7619 103.654 36.8736 102.976Z" fill="#1A171C"/>
<path d="M40.5411 108.694C53.4558 109.448 61.3407 101.05 61.3407 101.05C63.3262 99.2379 65.0706 97.1697 66.5234 94.8898C67.8292 96.5333 70.4555 99.4333 72.0872 101.288C74.0312 93.1508 74.2586 87.3956 73.9236 83.5456C76.6776 88.1969 80.6732 95.634 80.6732 95.634C80.6732 95.634 85.9142 82.7716 78.1849 72.0625C79.7375 72.4326 81.5461 73.8547 83.0805 75.3417C83.713 68.13 81.3627 63.3709 78.781 60.2631C74.8995 57.0488 65.2119 50.8735 61.876 47.0144C60.6998 45.6527 59.5574 33.2416 66.4774 16.7721C67.3509 16.2955 68.6761 15.7721 69.8762 16.1377C83.6255 20.3358 86.2149 14.2455 89.1011 10.5312C87.9632 11.3358 86.9089 11.8565 85.9168 12.1682C88.4123 8.21563 88.2769 2.26172 88.2769 2.26172C88.2769 2.26172 86.6834 6.18835 84.0052 9.02017C84.4549 6.68445 83.8685 4.5299 83.8685 4.5299C83.8685 4.5299 81.3186 11.6384 75.6661 10.215H75.6596C74.5334 9.87667 73.3968 9.72472 72.1973 10.0202C68.157 11.0202 66.3763 14.8533 65.7666 16.5611C61.7444 19.4429 53.1215 20.6377 46.7898 27.1475C43.7786 30.2423 41.9635 33.7189 39.7564 40.5585L38.4539 44.7592L37.7949 42.3034C35.085 42.3508 30.2697 42.4443 29.7202 42.6124C29.3819 42.7157 28.8661 42.854 28.2304 42.8339L18.7093 46.317C18.7093 46.317 24.6703 43.0884 25.7058 42.1118C25.7421 42.0754 25.7855 42.0482 25.8244 42.0209C24.5323 41.1592 23.082 39.478 21.6616 36.2904C19.6191 31.7053 19.8673 26.8903 19.995 24.9475C20.4835 24.6585 21.0797 24.4306 21.6059 24.5845C29.3242 26.8598 31.1062 22.4708 32.9472 19.7319C32.2513 20.3501 31.622 20.7656 31.0324 21.0345C32.6614 18.1481 32.8714 13.9832 32.8714 13.9832C32.8714 13.9832 31.7627 16.8091 30.0843 18.9195C30.4569 17.2656 30.2185 15.7851 30.2185 15.7851C30.2185 15.7851 28.4138 20.8799 25.2256 20.1618C24.5906 19.9734 23.9465 19.9267 23.2376 20.189C20.9125 21.0611 19.7105 23.7293 19.2523 24.9903C15.4136 27.7624 11.3688 33.1813 11.5962 41.2826C11.777 47.7228 12.4263 47.5287 12.8883 49.1696C13.0451 49.7391 11.2068 50.9949 9.20572 52.8164C6.70703 55.0891 8.78128 61.4255 10.8154 62.0962C9.42928 64.9956 8.47154 68.5898 8.47154 72.4891C8.47154 74.767 8.58882 78.4326 9.20572 81.7235C6.07069 81.3917 3.52534 81.9158 3.64911 86.0229C3.86683 93.506 10.1699 94.5905 15.0857 94.6677C16.359 96.8275 17.9051 98.8112 19.7137 100.568C20.6002 101.433 21.5515 102.226 22.5377 102.963C22.5377 102.963 27.6206 107.936 40.5411 108.694ZM23.5719 68.7333C23.8804 68.706 24.207 68.6657 24.5601 68.6294C31.9234 67.8086 33.3678 61.9781 38.0431 58.8975C42.9005 55.693 48.5213 55.68 48.7474 56.0157C51.2001 59.5826 52.7469 64.3385 52.7469 69.4014C52.7469 81.271 45.4025 87.4859 38.1533 87.4859C29.6936 87.4859 23.5551 79.8748 23.5551 69.4014C23.5551 69.1794 23.5641 68.9586 23.5719 68.7333ZM10.7318 81.932C10.2367 79.5859 9.93472 76.4593 9.93472 72.4891C9.93472 67.9683 11.3824 63.854 13.143 60.9547C13.7592 61.019 14.634 61.4456 15.6618 62.1027C16.2307 62.8443 16.74 63.7605 17.2092 64.6566C15.9832 65.0222 14.9593 67.6833 14.9593 70.6196C14.9593 73.7846 16.0499 76.9995 17.3906 76.9995C18.7359 76.9995 20.028 73.9495 20.028 70.7813C20.028 69.982 19.9509 69.1904 19.8142 68.4592C20.3002 68.6657 20.7985 68.7735 21.3402 68.8177C21.3558 69.5592 21.3681 70.3346 21.3681 71.1502C21.3681 75.7437 20.1686 79.8008 18.6659 82.7177C18.0393 82.7469 17.3829 82.7736 16.6927 82.7736C14.9373 82.7736 12.782 82.2703 10.7318 81.932ZM16.7297 94.6372C21.5683 94.2924 27.4243 91.5333 26.6266 88.1567C25.4272 83.0969 23.3095 82.5736 20.2885 82.6469C21.3745 80.3248 22.215 77.532 22.5973 74.5664C24.3171 83.1404 30.3364 88.9417 38.1533 88.9417C41.5954 88.9417 44.8406 87.7417 47.5162 85.5093C50.3687 83.6132 53.3061 77.2469 58.9522 76.2703C65.7335 75.0891 68.2724 82.5261 68.7733 86.2112C65.4652 98.4463 54.295 107.474 41.0459 107.474C30.4304 107.474 21.6798 102.537 16.7297 94.6372Z" fill="#1A171C"/>
</g>
<defs>
<clipPath id="clip0_17_2">
<rect width="90" height="111" fill="white"/>
</clipPath>
</defs>
</svg>
