<svg xmlns="http://www.w3.org/2000/svg" width="52" height="52" xml:space="preserve"><path fill="#fff" d="M51.386 9.076c-.004-4.844-14.949-7.246-25.391-7.24C15.544 1.841.61 4.26.612 9.104.614 11.927.327 20.93 4.448 30.18c1.133-.666 2.074-1.215 2.559-1.586.72-.543 4.748-5.194 5.275-6.007.542-.822 2.68-3.332 2.829-3.577.137-.241 1.19-2.432 1.368-2.782.178-.32.863-1.148.905-1.342.043-.178.698-1.476.892-1.762.178-.3.762-1.396.934-1.82.178-.434 1.024-1.69 1.567-2.554.542-.869.234-.199.361-.485.131-.276.843-1.805.843-1.805l.291.127s.943.059 1.086.485c.163.415.234 1.406-.419 2.846l-.665 1.428s-.511 1.67-.739 2.048c-.221.385-.847 1.77-.847 1.77s1.198-.927 1.518-1.271c.32-.334.628-.828.954-.963.33-.151 1.498-.608 1.912-.724.416-.105 1.683-.854 2.097-.862.422-.016 2.719-.787 3.047-.801.32-.009.934-.072.934-.072s1.298-.58 2.339-.407c.207.233.207.326.207.326s.578.686.179 1.271c-.412.586-.826.829-1.24.922 0 0-1.639.577-1.813.671-.197.092-.939.321-.939.321s-.103.093-.606.344c-.521.25-2.317 1.055-2.788 1.368-.463.288-.857.966-.857.966s1.021-.415 1.528-.571c.513-.167 1.125-.265 1.454-.416.321-.163 1.299-.563 1.626-.477.335.083 1.647 1.218 2.033 1.482.385.277 1.799.946 2.062 1.453.529.499 1.172 1.098 1.222 1.426.057.319.45 2.196.45 2.196s1.613.057 1.906.014c.271-.058.66-.074.66-.074s.75 0 1.037.009c.277-.001.891.171.891.171l.043.284s.299.805-.277 1.364c-.592.529-1.155.721-2.039.977-.913.251-3.003.529-3.523.545-.521.022-1.512.001-1.884.159-.392.134-1.389.47-1.991.626-.611.158-2.416.354-2.416.354s-1.084.264-1.348.414c-.293.148-1.396.84-1.669.998-.279.15-.705.342-.705.342s-.063 2.406.129 2.783c.192.371.622 1.34 1.151 2.139.541.779 1.554.955 1.688 1.092.138.141.757.148 1.591.227.864.063 1.897.02 2.192.248.205-.398 2.081-1.051 2.836-1.129.759-.057 2.912-.266 3.361.385.442.648.442.838.17 1.17-.277.342-2.167 1.299-2.167 1.299s-.641.527-1.02.912c-.455.814-1.332 1.441-1.496 1.672-.148.199-.412.369-1.646.355-1.227.002-2.775.037-3.34.061-.555.021-1.604-.1-2.344.072-.75.164-2.506.123-3.212.145-.705.021-2.312.064-3.188.285-.885.223-3.723.111-4.529.182-.67.066-2.76.395-3.822.795 3.604 3.885 8.448 7.377 14.978 9.947C52.378 39.752 51.389 14.232 51.386 9.076zM31.254 20.883c.444.021 1.655.215 1.655.215l-.022-.108-.185-.391c-.043 0-.641-.216-1.141-.493-.486-.264-1.521-1.126-1.521-1.126s-1.22.885-1.733 1.151c-.504.277-1.91.928-1.91.928s1.198-.065 1.305-.081c.086 0 3.082-.095 3.552-.095z"/></svg>